<?xml version="1.0" standalone="no"?>
<!DOCTYPE svg PUBLIC "-//W3C//DTD SVG 20010904//EN"
 "http://www.w3.org/TR/2001/REC-SVG-20010904/DTD/svg10.dtd">
<svg version="1.0" xmlns="http://www.w3.org/2000/svg"
 width="285.000000pt" height="334.000000pt" viewBox="0 0 285.000000 334.000000"
 preserveAspectRatio="xMidYMid meet">

<g transform="translate(0.000000,334.000000) scale(0.100000,-0.100000)"
fill="#000000" stroke="none">
<path d="M720 2140 l0 -680 680 0 680 0 0 680 0 680 -680 0 -680 0 0 -680z
m1330 0 l0 -650 -650 0 -650 0 0 650 0 650 650 0 650 0 0 -650z"/>
<path d="M1157 2575 c-32 -8 -67 -19 -77 -25 -28 -15 -25 -53 6 -90 40 -47 22
-47 -27 0 -38 36 -45 39 -55 25 -7 -9 -15 -32 -19 -51 -7 -39 7 -58 53 -70 39
-11 25 -27 -18 -20 -40 6 -40 6 -34 -21 10 -42 13 -45 47 -38 32 5 32 5 10
-11 -29 -21 -29 -30 2 -50 21 -14 28 -14 41 -3 15 12 16 11 10 -8 -6 -18 -2
-22 26 -28 47 -11 128 -7 144 6 8 6 14 19 14 28 0 9 5 22 12 29 9 9 9 15 1 23
-8 8 -22 4 -49 -14 -60 -39 -104 -39 -139 -1 -33 36 -32 76 3 116 l29 31 18
-30 c19 -33 52 -53 85 -53 31 0 23 17 -17 37 -25 12 -39 26 -41 41 l-3 23 25
-26 c25 -25 60 -33 71 -15 3 5 -8 16 -25 25 -16 8 -30 17 -30 19 0 2 30 34 66
71 50 49 64 69 56 77 -18 18 -120 19 -185 3z m131 -22 c-2 -9 -9 -18 -17 -21
-9 -3 -11 0 -6 8 4 7 2 16 -6 21 -10 6 -8 9 9 9 17 0 23 -5 20 -17z"/>
<path d="M1402 2157 c-251 -251 -311 -316 -300 -325 11 -9 77 52 327 302 278
278 328 336 293 336 -4 0 -148 -141 -320 -313z"/>
<path d="M1656 1951 c-25 -38 -46 -72 -46 -76 0 -4 24 -38 53 -75 37 -49 59
-69 75 -70 31 0 28 17 -16 69 -20 25 -43 53 -49 62 -11 13 -5 26 32 80 31 45
41 66 32 71 -24 15 -35 7 -81 -61z"/>
<path d="M571 864 c-39 -58 -71 -109 -71 -115 0 -9 112 -160 151 -205 14 -15
28 -19 54 -16 34 4 34 5 21 31 -8 14 -44 62 -80 105 -36 43 -66 82 -66 86 0 8
95 147 118 173 14 16 14 19 -4 32 -37 28 -51 17 -123 -91z"/>
<path d="M847 887 c-30 -45 -62 -97 -71 -115 -19 -37 -21 -32 64 -159 76 -115
86 -114 168 17 34 55 62 107 62 116 0 20 -134 210 -154 217 -11 4 -31 -18 -69
-76z m106 -82 c20 -29 37 -59 37 -64 0 -15 -60 -111 -69 -111 -8 0 -81 105
-81 116 0 10 64 114 70 114 3 -1 22 -25 43 -55z"/>
<path d="M1187 887 c-30 -45 -62 -97 -71 -115 -19 -37 -21 -32 64 -159 76
-115 86 -114 168 17 34 55 62 107 62 116 0 20 -134 210 -154 217 -11 4 -31
-18 -69 -76z m106 -82 c20 -29 37 -59 37 -64 0 -15 -60 -111 -69 -111 -8 0
-81 105 -81 116 0 10 64 114 70 114 3 -1 22 -25 43 -55z"/>
<path d="M1790 955 c-11 -13 -5 -31 36 -118 47 -98 49 -106 52 -204 3 -69 8
-103 15 -103 7 0 22 -3 35 -6 23 -7 23 -7 21 87 -3 94 -3 94 48 212 l52 118
-24 15 c-13 9 -28 13 -34 10 -5 -3 -22 -38 -37 -77 -15 -38 -31 -72 -36 -75
-4 -3 -25 30 -45 73 -39 79 -59 96 -83 68z"/>
<path d="M1613 868 l-58 -93 -3 88 -3 87 -34 0 -35 0 0 -67 c0 -38 -3 -132 -7
-211 l-6 -144 34 4 34 3 5 63 5 63 75 -70 c61 -56 78 -67 93 -59 40 21 32 40
-43 108 l-74 67 27 44 c15 24 45 73 67 108 38 60 40 65 24 82 -10 11 -23 19
-30 19 -7 0 -38 -42 -71 -92z"/>
<path d="M2157 933 c-8 -16 -29 -54 -47 -86 l-33 -59 64 -64 63 -63 -29 -61
c-25 -52 -27 -63 -15 -71 33 -21 54 -5 88 65 21 44 31 78 28 92 -3 12 -28 41
-56 64 -27 23 -50 46 -50 52 0 6 16 36 35 68 45 74 45 90 1 90 -27 0 -38 -6
-49 -27z"/>
</g>
</svg>
